<svg id="Layer_1" data-name="Layer 1" xmlns="http://www.w3.org/2000/svg" viewBox="0 0 122.88 100.06"><defs><style>.cls-1{fill-rule:evenodd;}</style></defs><title>new-window</title><path class="cls-1" d="M50.34,34.25h5.39a2.49,2.49,0,0,1,2.48,2.48v8h8a2.51,2.51,0,0,1,2.48,2.48v5.4a2.52,2.52,0,0,1-2.48,2.48h-8v8a2.51,2.51,0,0,1-2.48,2.48H50.34a2.51,2.51,0,0,1-2.49-2.48v-8h-8a2.5,2.5,0,0,1-2.48-2.48v-5.4a2.48,2.48,0,0,1,2.48-2.48h8v-8a2.49,2.49,0,0,1,2.49-2.48ZM7.67,0H98.35A7.69,7.69,0,0,1,106,7.67v68a7.7,7.7,0,0,1-7.67,7.67H7.67A7.69,7.69,0,0,1,0,75.69v-68A7.69,7.69,0,0,1,7.67,0ZM99.05,23.92H7.31V74a2.09,2.09,0,0,0,.62,1.5,2.13,2.13,0,0,0,1.51.62H96.89a2.11,2.11,0,0,0,1.51-.62A2.09,2.09,0,0,0,99,74V23.92ZM91,8.62a3.79,3.79,0,1,1-3.79,3.79A3.79,3.79,0,0,1,91,8.62Zm-25.68,0a3.79,3.79,0,1,1-3.79,3.79,3.79,3.79,0,0,1,3.79-3.79Zm12.84,0a3.79,3.79,0,1,1-3.79,3.79A3.79,3.79,0,0,1,78.2,8.62Zm37,8.07.36,23.92V90.69a2.12,2.12,0,0,1-2.13,2.13H26a2.12,2.12,0,0,1-2.12-2.13h-7v1.68a7.7,7.7,0,0,0,7.67,7.68h90.68a7.7,7.7,0,0,0,7.67-7.68v-68a7.7,7.7,0,0,0-7.67-7.68Z"/></svg>