<?xml version="1.0" encoding="iso-8859-1"?>
<!-- Generator: Adobe Illustrator 19.0.0, SVG Export Plug-In . SVG Version: 6.00 Build 0)  -->
<svg version="1.1" id="Layer_1" xmlns="http://www.w3.org/2000/svg" xmlns:xlink="http://www.w3.org/1999/xlink" x="0px" y="0px"
	 viewBox="0 0 512.001 512.001" style="enable-background:new 0 0 512.001 512.001;" xml:space="preserve">
<circle style="fill:#F95428;" cx="256.004" cy="256.004" r="246.855"/>
<g>
	<path style="fill:#E54728;" d="M126.306,385.694c-88.801-88.802-95.798-228.426-20.998-325.241
		c-8.286,6.401-16.258,13.399-23.858,20.999c-96.401,96.401-96.401,252.698,0,349.099s252.698,96.401,349.099,0
		c7.599-7.599,14.597-15.573,20.999-23.858C354.733,481.492,215.108,474.495,126.306,385.694z"/>
	<path style="fill:#E54728;" d="M220.789,326.378c-2.659,0-5.296-1.153-7.104-3.377c-3.188-3.92-2.596-9.684,1.325-12.872
		c11.647-9.473,26.436-14.69,41.644-14.69c14.5,0,28.75,4.799,40.126,13.512c4.011,3.073,4.772,8.816,1.701,12.828
		c-3.073,4.012-8.815,4.772-12.828,1.701c-8.2-6.281-18.499-9.74-28.999-9.74c-11.014,0-21.703,3.76-30.097,10.587
		C224.86,325.705,222.818,326.378,220.789,326.378z"/>
</g>
<path d="M256.001,0C114.841,0,0,114.841,0,256.001s114.841,256.001,256.001,256.001S512.001,397.16,512.001,256.001
	S397.16,0,256.001,0z M256.001,493.701c-131.069,0-237.702-106.631-237.702-237.7S124.932,18.299,256.001,18.299
	s237.702,106.632,237.702,237.702S387.068,493.701,256.001,493.701z"/>
<path d="M180.577,229.78c0-3.914-0.676-7.672-1.903-11.172c3.656,0.376,7.477,0.589,11.481,0.589
	c10.598,0,22.412-1.442,35.442-4.985c4.875-1.326,7.753-6.353,6.428-11.231c-1.327-4.877-6.362-7.751-11.231-6.428
	c-64.932,17.664-93.048-23.646-94.229-25.438c-2.746-4.219-8.386-5.43-12.621-2.702c-4.249,2.735-5.475,8.397-2.74,12.646
	c0.305,0.476,6.439,9.849,19.049,19.163c-10.357,5.796-17.378,16.869-17.378,29.558c0,18.666,15.186,33.852,33.852,33.852
	S180.577,248.446,180.577,229.78z"/>
<path d="M260.322,257.016c-45.315,0-85.656,28.193-100.385,70.154c-1.673,4.768,0.836,9.989,5.603,11.664
	c4.772,1.675,9.99-0.834,11.665-5.603c12.159-34.641,45.562-57.915,83.118-57.915c37.548,0,70.947,23.274,83.106,57.915
	c1.322,3.766,4.857,6.123,8.634,6.122c1.005,0,2.028-0.167,3.03-0.518c4.768-1.674,7.276-6.895,5.603-11.664
	C345.965,285.208,305.628,257.016,260.322,257.016z"/>
<path d="M398.086,168.459c-4.219-2.749-9.879-1.551-12.647,2.655c-1.164,1.768-29.28,43.107-94.229,25.441
	c-4.871-1.325-9.903,1.551-11.231,6.428c-1.326,4.876,1.552,9.903,6.428,11.231c13.033,3.544,24.843,4.985,35.442,4.985
	c4.003,0,7.823-0.213,11.48-0.589c-1.227,3.5-1.903,7.257-1.903,11.172c0,18.666,15.186,33.852,33.852,33.852
	s33.852-15.186,33.852-33.852c0-12.689-7.021-23.762-17.378-29.558c12.611-9.314,18.744-18.687,19.049-19.163
	C403.524,176.825,402.304,171.206,398.086,168.459z"/>
<g>
	<circle style="fill:#FFFFFF;" cx="155.969" cy="225.835" r="9.15"/>
	<circle style="fill:#FFFFFF;" cx="374.338" cy="225.835" r="9.15"/>
</g>
<g>
</g>
<g>
</g>
<g>
</g>
<g>
</g>
<g>
</g>
<g>
</g>
<g>
</g>
<g>
</g>
<g>
</g>
<g>
</g>
<g>
</g>
<g>
</g>
<g>
</g>
<g>
</g>
<g>
</g>
</svg>
